<?xml version="1.0" standalone="no"?>
<!DOCTYPE svg PUBLIC "-//W3C//DTD SVG 20010904//EN"
 "http://www.w3.org/TR/2001/REC-SVG-20010904/DTD/svg10.dtd">
<svg version="1.0" xmlns="http://www.w3.org/2000/svg"
 width="1727.000000pt" height="280.000000pt" viewBox="0 0 1727.000000 280.000000"
 preserveAspectRatio="xMidYMid meet">

<g transform="translate(0.000000,280.000000) scale(0.100000,-0.100000)"
fill="#000000" stroke="none">
<path d="M10460 2271 c0 -41 -3 -51 -16 -51 -14 0 -16 -8 -10 -46 3 -26 6 -68
6 -94 l0 -47 61 -13 c33 -7 62 -18 64 -24 2 -6 5 -103 8 -215 5 -243 23 -264
-163 187 -73 177 -136 322 -139 322 -3 0 -154 -293 -335 -652 l-329 -651 -105
7 c-58 3 -107 7 -108 9 -2 1 -19 293 -39 647 -20 354 -37 646 -39 647 -1 1
-99 -38 -218 -88 l-216 -91 -6 -39 c-3 -21 -11 -39 -16 -39 -6 0 -38 43 -71
95 -34 52 -65 95 -71 95 -5 0 -108 -55 -228 -122 l-218 -121 15 -24 c15 -22
14 -25 -3 -37 -21 -16 -15 -35 34 -102 l30 -41 233 44 c138 26 235 40 237 35
2 -7 15 -7 35 -1 73 21 75 19 79 -83 2 -51 4 -94 3 -95 0 -1 -30 7 -65 18 -54
17 -83 20 -175 16 -143 -6 -233 -39 -360 -131 -18 -13 -35 -13 -145 3 l-125
18 -128 -69 c-70 -39 -131 -67 -135 -64 -3 4 -18 189 -32 411 -14 222 -28 406
-30 408 -3 3 -99 -35 -215 -83 -188 -80 -210 -92 -218 -117 -5 -15 -15 -41
-22 -58 -16 -39 -39 -164 -31 -172 3 -4 26 -2 50 4 l44 10 6 -51 c3 -28 6 -72
6 -98 l0 -47 -62 29 c-200 93 -406 46 -584 -135 -109 -111 -170 -304 -146
-461 23 -147 86 -245 190 -296 61 -30 74 -33 157 -32 76 0 104 6 178 33 104
39 186 92 251 161 26 27 48 50 50 50 2 0 6 -78 10 -173 4 -94 9 -189 12 -209
l6 -38 169 0 c142 0 171 2 175 15 4 10 20 15 52 15 l45 0 -7 125 c-4 69 -4
125 -1 125 4 0 110 -74 236 -165 227 -163 229 -165 229 -134 l0 31 51 -38 52
-38 -8 116 -7 115 124 6 c137 7 203 22 328 73 47 19 92 38 101 40 14 5 17 -14
25 -143 l9 -148 200 -10 c110 -6 207 -14 215 -17 8 -4 141 -9 295 -12 154 -4
297 -9 318 -12 30 -5 37 -4 37 10 0 13 10 16 50 16 l50 0 0 189 0 190 -47 6
c-27 3 -54 7 -61 8 -8 1 7 42 43 117 l56 115 51 -3 c28 -2 58 -7 67 -12 9 -4
90 -181 180 -392 89 -210 167 -387 172 -392 14 -15 297 13 303 30 4 9 21 14
51 14 28 0 48 5 51 13 2 7 -9 45 -26 85 -16 39 -30 73 -30 76 0 4 18 6 40 6
l40 0 2 160 3 159 84 -240 84 -241 131 7 c94 5 134 11 142 21 7 8 29 14 54 14
l43 0 -6 488 c-4 268 -7 652 -7 853 l0 367 -42 5 c-24 4 -144 9 -267 13 l-224
7 6 -47 c5 -36 4 -46 -7 -46 -8 0 -16 -6 -18 -12 -3 -7 -17 20 -33 61 -19 48
-36 76 -49 81 -12 4 -111 13 -221 19 -110 7 -215 15 -232 18 l-33 5 0 -51z
m289 -44 l163 -12 91 -232 c89 -226 92 -232 117 -226 14 3 29 9 34 14 5 5 2
86 -8 199 -10 106 -16 193 -14 195 2 3 87 1 188 -3 l185 -7 7 -784 c4 -432 6
-786 4 -789 -3 -2 -50 -4 -107 -5 l-102 -2 -128 360 c-70 198 -131 365 -136
372 -5 7 -22 9 -41 6 l-33 -5 7 -304 7 -304 -142 0 -141 0 0 38 c0 118 -41
1346 -45 1352 -3 5 -24 11 -48 15 -70 12 -77 19 -77 80 0 64 -26 59 219 42z
m-3066 -104 c4 -38 16 -225 28 -418 12 -192 23 -352 25 -354 2 -2 79 38 171
89 l167 93 90 -12 c50 -7 92 -14 94 -16 14 -13 -50 -76 -185 -179 -85 -65
-151 -121 -148 -125 4 -3 56 -44 117 -91 99 -75 113 -90 124 -128 19 -66 62
-121 121 -154 53 -30 53 -30 53 -79 0 -27 -2 -49 -5 -49 -3 0 -130 90 -282
200 -186 134 -279 196 -281 186 -2 -8 1 -95 7 -193 5 -98 9 -178 8 -179 -1 -1
-63 -5 -138 -9 l-136 -7 -6 99 c-3 54 -18 342 -33 641 l-28 542 -49 -6 c-45
-6 -49 -5 -44 12 3 10 8 33 12 50 6 30 15 35 148 92 78 33 147 61 153 61 7 1
14 -26 17 -66z m1606 -565 l35 -626 123 -7 c68 -4 123 -9 123 -11 0 -10 -110
-223 -118 -228 -9 -6 -354 13 -361 20 -2 2 -19 288 -37 635 -18 347 -35 634
-38 637 -3 2 -24 0 -47 -6 l-41 -10 7 46 c4 26 11 51 16 57 14 14 282 125 294
121 6 -1 24 -250 44 -628z m-529 492 c31 -47 49 -84 44 -89 -8 -7 -297 -66
-362 -73 -17 -2 -28 6 -44 34 -12 21 -20 39 -17 41 17 16 315 175 320 172 3
-3 30 -41 59 -85z m1665 -300 c140 -337 148 -360 155 -445 10 -105 21 -565 14
-550 -2 6 -55 127 -117 270 l-112 260 -95 17 c-52 9 -106 17 -120 17 -24 1
-36 -21 -174 -314 -82 -174 -152 -317 -155 -319 -3 -2 -70 -7 -149 -10 l-143
-7 132 263 c333 666 602 1189 609 1181 4 -4 74 -168 155 -363z m-3191 -91 c56
-21 113 -57 123 -79 4 -8 12 -103 18 -210 15 -236 12 -246 -94 -350 -93 -92
-177 -132 -286 -138 -107 -5 -175 19 -237 86 -61 65 -90 143 -96 258 -7 153
35 250 150 343 140 113 280 143 422 90z m1646 -36 l55 -19 3 -48 3 -47 -186
-222 -186 -222 66 -3 c86 -4 155 26 223 98 l50 52 27 -35 c21 -29 28 -50 32
-111 l6 -75 -34 -20 c-88 -54 -241 -92 -370 -93 -160 -1 -253 47 -299 155 -48
109 -19 313 61 438 47 73 152 140 263 165 80 18 215 12 286 -13z m79 -332 l1
-25 -30 29 c-36 34 -37 44 -7 81 l22 29 7 -45 c3 -25 7 -56 7 -69z m-102 -20
c-27 -41 -86 -101 -100 -101 -5 0 20 33 55 74 67 79 87 91 45 27z m-680 25
c-6 -15 -25 -114 -29 -153 -3 -21 -6 -20 -55 18 -29 22 -53 43 -53 47 1 9 122
101 134 101 4 1 6 -5 3 -13z m1908 -521 l0 -120 -90 3 c-49 2 -92 6 -94 8 -2
2 21 56 52 120 l57 115 37 -3 38 -3 0 -120z m831 -211 c9 -20 12 -40 7 -45 -4
-4 -56 -11 -114 -15 -85 -5 -107 -4 -112 7 -3 8 -12 31 -21 52 l-16 37 120 0
121 0 15 -36z"/>
<path d="M10188 1628 c-41 -106 -74 -195 -72 -197 6 -6 258 -41 262 -36 5 4
-99 408 -107 418 -4 4 -41 -80 -83 -185z m52 -124 c0 -14 -5 -24 -11 -22 -6 2
-10 7 -10 11 1 4 1 14 1 22 0 8 5 15 10 15 6 0 10 -12 10 -26z"/>
<path d="M7119 1619 c-184 -28 -291 -246 -173 -350 92 -81 230 -79 301 5 48
57 78 164 67 237 -6 36 -9 39 -40 39 -29 0 -36 -5 -54 -39 -21 -43 -54 -71
-82 -71 -32 0 -24 63 12 93 29 25 38 60 22 82 -4 7 -25 8 -53 4z m-69 -116
c-1 -5 -7 -19 -15 -33 -21 -37 -19 -93 5 -115 22 -19 37 -18 119 14 30 11 56
19 58 17 10 -9 -27 -74 -50 -89 -50 -32 -148 -13 -182 37 -18 24 -19 79 -4
109 22 43 70 84 69 60z"/>
<path d="M8535 1481 c-106 -49 -142 -162 -100 -313 10 -38 21 -68 24 -68 7 0
268 319 284 347 6 10 -4 19 -35 33 -54 25 -121 25 -173 1z m68 -94 c-4 -7 -30
-41 -58 -75 -53 -66 -70 -65 -55 1 14 65 35 87 81 87 30 0 38 -3 32 -13z"/>
<path d="M6305 2209 c-103 -8 -220 -36 -423 -101 -133 -42 -161 -55 -156 -67
16 -39 16 -61 0 -61 -9 0 -16 -3 -16 -6 0 -4 56 -156 111 -303 8 -20 12 -21
25 -10 8 7 29 13 46 13 l30 0 158 -450 c156 -447 157 -449 185 -449 19 -1 62
24 143 82 63 46 117 85 119 87 2 2 -26 108 -62 235 l-66 231 98 98 c175 174
272 309 294 408 10 46 10 59 -6 101 -39 102 -151 181 -269 189 -34 3 -77 6
-96 7 -19 2 -71 0 -115 -4z m247 -79 c98 -28 184 -122 172 -190 -14 -82 -116
-221 -286 -391 l-119 -118 62 -218 c34 -120 63 -223 66 -228 3 -11 -108 -95
-125 -95 -5 0 -62 152 -127 338 -216 620 -206 592 -226 592 -11 0 -28 -9 -40
-21 -12 -12 -25 -17 -29 -13 -10 11 -80 203 -80 219 0 12 259 93 380 119 77
17 300 20 352 6z"/>
<path d="M6333 1910 c-44 -9 -118 -43 -128 -60 -6 -9 59 -260 74 -288 9 -15
116 94 187 190 46 63 59 123 32 146 -19 14 -117 21 -165 12z m70 -99 c16 -6
12 -14 -30 -63 -26 -31 -51 -57 -54 -57 -8 -1 -39 112 -33 121 6 10 92 9 117
-1z"/>
</g>
</svg>
